{"title":"En karlekshistoria / A Swedish Love Story (Roy Andersson, 1970)","uid":9089974,"size":1888912221,"categoryP":"video","categoryS":"movies","magnet":"?xt=urn:btih:6999f6927b7a9e9671511bb0488d5ebd5aa832c5&amp;dn=En+karlekshistoria+%2F+A+Swedish+Love+Story+%28Roy+Andersson%2C+1970%29&amp;tr=udp%3A%2F%2Ftracker.openbittorrent.com%3A80&amp;tr=udp%3A%2F%2Fopen.demonii.com%3A1337&amp;tr=udp%3A%2F%2Ftracker.coppersurfer.tk%3A6969&amp;tr=udp%3A%2F%2Fexodus.desync.com%3A6969","seeders":25,"leechers":3,"uploader":"moonflux","files":1,"time":1382573257,"description":"Two idealistic teenagers fall in love for the first time in this romantic drama. They try to remain hopeful in a cynical world of adults that discourage them. Their parents are weary from life's constant problems and fail to take the young couple seriously when they speak of love and hope for the future.\n\nGeneral\nUnique ID : 193183210228917581149435912177836189594 (0x9155BBA183D45DCFA82AD3427485679A)\nComplete name : En.karlekshistoria.AKA.A.Swedish.Love.Story.1970.DVDRip.x264-TBB.mkv\nFormat : Matroska\nFormat version : Version 2\nFile size : 1.76 GiB\nDuration : 1h 54mn\nOverall bit rate : 2 203 Kbps\nEncoded date : UTC 2012-01-30 14:37:03\nWriting application : mkvmerge v5.2.1 ('A Far Off Place') built on Jan 2 2012 20:38:08\nWriting library : libebml v1.2.3 + libmatroska v1.3.0\n\nVideo\nID : 1\nFormat : AVC\nFormat/Info : Advanced Video Codec\nFormat profile : &lt;a class=&quot;__cf_email__&quot; href=&quot;/cdn-cgi/l/email-protection&quot; data-cfemail=&quot;450d2c222d0509716b75&quot;&gt;[email&amp;#160;protected]&lt;/a&gt;&lt;script cf-hash='f9e31' type=&quot;text/javascript&quot;&gt;\n/* &lt;![CDATA[ */!function(){try{var t=&quot;currentScript&quot;in document?document.currentScript:function(){for(var t=document.getElementsByTagName(&quot;script&quot;),e=t.length;e--;)if(t[e].getAttribute(&quot;cf-hash&quot;))return t[e]}();if(t&amp;&amp;t.previousSibling){var e,r,n,i,c=t.previousSibling,a=c.getAttribute(&quot;data-cfemail&quot;);if(a){for(e=&quot;&quot;,r=parseInt(a.substr(0,2),16),n=2;a.length-n;n+=2)i=parseInt(a.substr(n,2),16)^r,e+=String.fromCharCode(i);e=document.createTextNode(e),c.parentNode.replaceChild(e,c)}}}catch(u){}}();/* ]]&gt; */&lt;/script&gt;\nFormat settings, CABAC : Yes\nFormat settings, ReFrames : 16 frames\nMuxing mode : Header stripping\nCodec ID : V_MPEG4/ISO/AVC\nDuration : 1h 54mn\nBit rate : 1 967 Kbps\nWidth : 1009 pixels\nHeight : 568 pixels\nDisplay aspect ratio : 16:9\nFrame rate : 25.000 fps\nColor space : YUV\nChroma subsampling : 4:2:0\nBit depth : 8 bits\nScan type : Progressive\nBits/(Pixel*Frame) : 0.199\nStream size : 1.57 GiB (89%)\nWriting library : x264 core 120 r2120 0c7dab9\nEncoding settings : cabac=1 // deblock=1:-2:-2 / analyse=0x3:0x133 / me=umh / subme=11 / psy=1 / psy_rd=1.00:0.00 // me_range=64 / chroma_me=1 / trellis=2 / 8x8dct=1 / cqm=0 / deadzone=21,11 / fast_pskip=0 / chroma_qp_offset=-2 / threads=6 / sliced_threads=0 / nr=0 / decimate=1 / interlaced=0 / bluray_compat=0 / constrained_intra=0 / bframes=10 / b_pyramid=2 / b_adapt=2 / b_bias=0 / direct=3 / weightb=1 / open_gop=0 / weightp=2 / keyint=250 / keyint_min=25 / scenecut=40 / intra_refresh=0 / rc_lookahead=60 / rc=crf / mbtree=1 / crf=16.5 / qcomp=0.60 / qpmin=0 / qpmax=69 / qpstep=4 / ip_ratio=1.40 / aq=2:1.00\nLanguage : Swedish\n\nAudio\nID : 2\nFormat : AC-3\nFormat/Info : Audio Coding 3\nFormat profile : Dolby Digital\nMode extension : CM (complete main)\nMuxing mode : Header stripping\nCodec ID : A_AC3\nDuration : 1h 54mn\nBit rate mode : Constant\nBit rate : 192 Kbps\nChannel(s) : 2 channels\nChannel positions : Front: L R\nSampling rate : 48.0 KHz\nBit depth : 16 bits\nCompression mode : Lossy\nStream size : 157 MiB (9%)\nLanguage : Swedish\n\nText\nID : 3\nFormat : UTF-8\nCodec ID : S_TEXT/UTF8\nCodec ID/Info : UTF-8 Plain Text\nLanguage : English\n","torrent":{"xt":"urn:btih:6999f6927b7a9e9671511bb0488d5ebd5aa832c5","amp;dn":"En+karlekshistoria+%2F+A+Swedish+Love+Story+%28Roy+Andersson%2C+1970%29","amp;tr":["udp%3A%2F%2Ftracker.openbittorrent.com%3A80","udp%3A%2F%2Fopen.demonii.com%3A1337","udp%3A%2F%2Ftracker.coppersurfer.tk%3A6969","udp%3A%2F%2Fexodus.desync.com%3A6969"],"infoHash":"6999f6927b7a9e9671511bb0488d5ebd5aa832c5","infoHashBuffer":{"type":"Buffer","data":[105,153,246,146,123,122,158,150,113,81,27,176,72,141,94,189,90,168,50,197]},"announce":[],"urlList":[]}}